<?xml version="1.0" encoding="utf-8"?>
<!-- Generator: Adobe Illustrator 24.1.1, SVG Export Plug-In . SVG Version: 6.00 Build 0)  -->
<svg version="1.1" id="Capa_1" xmlns="http://www.w3.org/2000/svg" xmlns:xlink="http://www.w3.org/1999/xlink" x="0px" y="0px"
	 viewBox="0 0 90 71.9" style="enable-background:new 0 0 90 71.9;" xml:space="preserve">
<style type="text/css">
	.st0{fill:url(#SVGID_1_);}
	.st1{fill:url(#SVGID_2_);}
</style>
<g>
	<linearGradient id="SVGID_1_" gradientUnits="userSpaceOnUse" x1="1.8718" y1="60.2882" x2="81.752" y2="60.2882">
		<stop  offset="0" style="stop-color:#DD3900"/>
		<stop  offset="1" style="stop-color:#CC710D"/>
	</linearGradient>
	<path class="st0" d="M16.3,64.5c-0.6,0.1-1.3,0.2-1.9,0.2c-5.7,0-10.5-4.1-11.5-9.7l-1-6.3v14.2c0,5,4.1,9.1,9.1,9.1h61.7
		c5,0,9.1-4.1,9.1-9.1v-9.2c-0.4,0.1-0.8,0.2-1.3,0.3L16.3,64.5z"/>
	<linearGradient id="SVGID_2_" gradientUnits="userSpaceOnUse" x1="0" y1="30.9633" x2="90" y2="30.9633">
		<stop  offset="0" style="stop-color:#DD3900"/>
		<stop  offset="1" style="stop-color:#CC710D"/>
	</linearGradient>
	<path class="st1" d="M89.9,39.2L84.8,8.7C84,3.6,79.7,0,74.6,0c-0.6,0-1.1,0-1.7,0.1L8.7,10.8C3,11.7-0.8,17,0.1,22.7l5.1,30.6
		c0.8,5,5.1,8.7,10.2,8.7c0.6,0,1.1,0,1.7-0.1l64.2-10.6c2.7-0.5,5.1-1.9,6.7-4.2C89.7,44.7,90.3,42,89.9,39.2z M14.6,36.5
		c-0.2-1.1,0.6-2.2,1.7-2.4l21.9-3.6c1.1-0.2,2.2,0.6,2.4,1.7c0.2,1.1-0.6,2.2-1.7,2.4L17,38.2c-0.1,0-0.2,0-0.3,0
		C15.7,38.2,14.8,37.5,14.6,36.5z M49.8,45L19,50.1c-0.1,0-0.2,0-0.3,0c-1,0-1.9-0.7-2.1-1.8c-0.2-1.1,0.6-2.2,1.7-2.4l30.8-5.1
		c1.1-0.2,2.2,0.6,2.4,1.7C51.7,43.7,50.9,44.8,49.8,45z M53.8,19.9L15,26.3c-0.1,0-0.2,0-0.3,0c-1,0-1.9-0.7-2.1-1.8
		c-0.2-1.1,0.6-2.2,1.7-2.4l38.8-6.4c1.1-0.2,2.2,0.6,2.4,1.7C55.7,18.6,54.9,19.7,53.8,19.9z"/>
</g>
</svg>
